<?xml version="1.0" encoding="utf-8"?>
<!-- Generator: Adobe Illustrator 26.0.3, SVG Export Plug-In . SVG Version: 6.00 Build 0)  -->
<svg version="1.1" id="圖層_1" xmlns="http://www.w3.org/2000/svg" xmlns:xlink="http://www.w3.org/1999/xlink" x="0px" y="0px"
	 viewBox="0 0 40 40" style="enable-background:new 0 0 40 40;" xml:space="preserve">
<style type="text/css">
	.st0{fill:#FFFFFF;}
</style>
<g transform="translate(0 0)">
	<path class="st0" d="M38.3,18.3c-0.9,0-1.7,0.7-1.7,1.7c0,9.2-7.5,16.7-16.7,16.7c-9.2,0-16.7-7.5-16.7-16.7
		c0-9.2,7.5-16.7,16.7-16.7c4.4,0,8.7,1.8,11.8,4.9c0.6,0.7,1.7,0.7,2.4,0.1s0.7-1.7,0.1-2.4c0,0,0,0,0,0C26.4-1.9,13.7-2,5.9,5.8
		S-2,26.3,5.8,34.1s20.4,7.9,28.3,0.1C37.9,30.4,40,25.3,40,20C40,19.1,39.3,18.3,38.3,18.3z"/>
</g>
<path class="st0" d="M29.3,13.2c-0.5-0.5-1.1-0.7-1.7-0.7c-0.6,0-1.3,0.3-1.7,0.7l-8.5,8.5l-2.9-2.9c-1-1-2.5-1-3.4,0s-1,2.5,0,3.4
	l4.7,4.7c0.5,0.5,1.1,0.7,1.7,0.7l0,0c0.6,0,1.3-0.3,1.7-0.7l10.3-10.3C30.3,15.7,30.3,14.2,29.3,13.2z"/>
</svg>
